<?xml version="1.0" standalone="no"?><!DOCTYPE svg PUBLIC "-//W3C//DTD SVG 1.1//EN" "http://www.w3.org/Graphics/SVG/1.1/DTD/svg11.dtd"><svg t="1777254148869" class="icon" viewBox="0 0 1024 1024" version="1.1" xmlns="http://www.w3.org/2000/svg" p-id="7407" xmlns:xlink="http://www.w3.org/1999/xlink" width="200" height="200"><path d="M678.4 834.56c-12.8 0-25.6-10.24-25.6-25.6 0-12.8 10.24-25.6 25.6-25.6 151.04 0 271.36-122.88 271.36-271.36S829.44 240.64 678.4 240.64 407.04 363.52 407.04 512c0 12.8-10.24 25.6-25.6 25.6-12.8 0-25.6-10.24-25.6-25.6 0-176.64 143.36-322.56 322.56-322.56S998.4 335.36 998.4 512s-143.36 322.56-320 322.56z" fill="#979CAF" p-id="7408"></path><path d="M826.88 537.6h-148.48c-12.8 0-25.6-10.24-25.6-25.6v-212.48c0-12.8 10.24-25.6 25.6-25.6 12.8 0 25.6 10.24 25.6 25.6V486.4h122.88c12.8 0 25.6 10.24 25.6 25.6s-12.8 25.6-25.6 25.6zM102.4 747.52c-2.56 5.12-5.12 10.24-7.68 12.8-2.56 2.56-5.12 5.12-10.24 5.12-7.68 0-10.24-2.56-10.24-7.68 0-7.68 0-10.24 2.56-15.36l158.72-345.6H53.76c-12.8 0-20.48-5.12-20.48-12.8s7.68-12.8 20.48-12.8h189.44c15.36 0 20.48 5.12 20.48 15.36 0 5.12-2.56 10.24-2.56 15.36-25.6 58.88-51.2 115.2-79.36 174.08S128 688.64 102.4 747.52z" fill="#979CAF" p-id="7409"></path><path d="M84.48 783.36c-15.36 0-25.6-10.24-28.16-25.6 0-7.68 2.56-15.36 5.12-25.6L209.92 409.6H53.76c-25.6 0-35.84-15.36-35.84-30.72s10.24-30.72 35.84-30.72h189.44c28.16 0 38.4 15.36 38.4 33.28 0 7.68-2.56 15.36-5.12 23.04L117.76 755.2c-2.56 7.68-7.68 12.8-10.24 15.36-5.12 7.68-12.8 12.8-23.04 12.8z m460.8-38.4c0 2.56-2.56 5.12-7.68 5.12h-71.68c-2.56 0-2.56 0-5.12-2.56l-2.56-2.56v-5.12c0-2.56 2.56-2.56 2.56-5.12l20.48-20.48c7.68-7.68 15.36-15.36 20.48-23.04 7.68-7.68 10.24-15.36 15.36-25.6 5.12-7.68 7.68-17.92 7.68-28.16 0-10.24-2.56-17.92-7.68-23.04-5.12-7.68-10.24-7.68-20.48-7.68-5.12 0-10.24 2.56-12.8 2.56s-7.68 5.12-7.68 7.68c-2.56 2.56-2.56 7.68-5.12 10.24s-2.56 10.24-2.56 15.36c0 2.56 0 5.12-2.56 7.68-2.56 2.56-2.56 2.56-5.12 2.56s-2.56 0-5.12-2.56c0-2.56-2.56-2.56-2.56-7.68 0-15.36 2.56-25.6 10.24-33.28s15.36-10.24 30.72-10.24 23.04 2.56 30.72 10.24 10.24 17.92 10.24 30.72c0 7.68-2.56 10.24-2.56 17.92s-5.12 10.24-7.68 17.92-10.24 12.8-12.8 15.36-7.68 10.24-10.24 15.36c-7.68 10.24-17.92 20.48-28.16 30.72-2.56 2.56 0 5.12 2.56 5.12h58.88c7.68-5.12 10.24-2.56 10.24 2.56z" fill="#979CAF" p-id="7410"></path><path d="M537.6 757.76h-71.68c-2.56 0-7.68-2.56-7.68-2.56l-7.68-7.68c-2.56-2.56-2.56-7.68 0-10.24 0-2.56 2.56-7.68 5.12-7.68 5.12-7.68 12.8-12.8 20.48-20.48 7.68-7.68 15.36-15.36 20.48-23.04 7.68-7.68 10.24-15.36 15.36-25.6 2.56-7.68 7.68-15.36 7.68-23.04 0-7.68-2.56-12.8-5.12-17.92-2.56 0-7.68-5.12-15.36-5.12-2.56 0-7.68 0-10.24 2.56-2.56 2.56-5.12 2.56-7.68 5.12s-2.56 5.12-2.56 7.68c-2.56 2.56-2.56 7.68-2.56 12.8s-2.56 7.68-2.56 10.24c-2.56 2.56-7.68 5.12-10.24 5.12-7.68 0-10.24-2.56-10.24-5.12-2.56-2.56-2.56-7.68-2.56-10.24 0-15.36 2.56-30.72 10.24-38.4s20.48-15.36 35.84-15.36c15.36 0 25.6 5.12 33.28 12.8s12.8 20.48 12.8 35.84c0 7.68-2.56 12.8-2.56 20.48s-5.12 12.8-7.68 20.48-7.68 10.24-10.24 17.92c-2.56 7.68-7.68 10.24-12.8 15.36-5.12 7.68-10.24 12.8-17.92 20.48h43.52c10.24 0 15.36 7.68 15.36 12.8 2.56 5.12-2.56 12.8-12.8 12.8z m-69.12-17.92c0 2.56-2.56 2.56 0 0 2.56 2.56 2.56 2.56 0 0z m184.32 12.8c-2.56 0-2.56 0-2.56-2.56s-2.56-2.56-2.56-5.12v-30.72h-66.56c-5.12 0-7.68-2.56-7.68-2.56-2.56-2.56 0-7.68 2.56-10.24l61.44-94.72c2.56-2.56 5.12-7.68 7.68-7.68s2.56-2.56 7.68-2.56 5.12 2.56 7.68 2.56 2.56 5.12 2.56 10.24v94.72h10.24c5.12 0 7.68 2.56 7.68 5.12s-2.56 5.12-7.68 5.12h-10.24v30.72c0 2.56 0 5.12-2.56 5.12h-7.68v2.56z m-5.12-48.64v-94.72c0-2.56-2.56-2.56-2.56 0l-53.76 84.48c-2.56 2.56 0 10.24 5.12 10.24h51.2z" fill="#979CAF" p-id="7411"></path><path d="M652.8 760.32c-7.68 0-10.24-2.56-10.24-5.12-2.56-2.56-2.56-5.12-2.56-10.24v-23.04h-56.32c-10.24 0-15.36-7.68-15.36-10.24-2.56-5.12 0-10.24 2.56-15.36l61.44-94.72c2.56-5.12 5.12-7.68 7.68-10.24 2.56-2.56 7.68-2.56 10.24-2.56 7.68 0 10.24 5.12 12.8 7.68 2.56 2.56 2.56 7.68 2.56 15.36v87.04h2.56c10.24 0 15.36 7.68 15.36 12.8s-5.12 12.8-15.36 12.8H665.6v23.04c0 5.12-2.56 7.68-2.56 10.24-2.56 0-5.12 2.56-10.24 2.56z m0-17.92v7.68-7.68z m0 0v7.68-7.68z m-71.68-35.84h2.56v-5.12 2.56c0 2.56-2.56 2.56-2.56 2.56z m20.48-10.24H640v-61.44l-38.4 61.44zM376.32 737.28c-7.68 0-12.8-2.56-17.92-7.68l-94.72-94.72c-10.24-10.24-10.24-25.6 0-33.28s25.6-10.24 33.28 0l94.72 94.72c10.24 10.24 10.24 25.6 0 33.28-2.56 7.68-7.68 7.68-15.36 7.68z" fill="#979CAF" p-id="7412"></path><path d="M284.16 737.28c-7.68 0-12.8-2.56-17.92-7.68-10.24-10.24-10.24-25.6 0-33.28l94.72-94.72c10.24-10.24 25.6-10.24 33.28 0 10.24 10.24 10.24 25.6 0 33.28l-94.72 94.72c-2.56 7.68-10.24 7.68-15.36 7.68z" fill="#979CAF" p-id="7413"></path></svg>